<svg width="20" height="27" viewBox="0 0 20 27" fill="none" xmlns="http://www.w3.org/2000/svg">
<path d="M10 6.75C12.6522 6.75 15.1957 7.80357 17.0711 9.67893C18.9464 11.5543 20 14.0978 20 16.75C20 19.4022 18.9464 21.9457 17.0711 23.8211C15.1957 25.6964 12.6522 26.75 10 26.75C7.34783 26.75 4.8043 25.6964 2.92893 23.8211C1.05357 21.9457 0 19.4022 0 16.75C0 14.0978 1.05357 11.5543 2.92893 9.67893C4.8043 7.80357 7.34783 6.75 10 6.75ZM10 9.25C8.01087 9.25 6.10322 10.0402 4.6967 11.4467C3.29018 12.8532 2.5 14.7609 2.5 16.75C2.5 18.7391 3.29018 20.6468 4.6967 22.0533C6.10322 23.4598 8.01087 24.25 10 24.25C11.9891 24.25 13.8968 23.4598 15.3033 22.0533C16.7098 20.6468 17.5 18.7391 17.5 16.75C17.5 14.7609 16.7098 12.8532 15.3033 11.4467C13.8968 10.0402 11.9891 9.25 10 9.25ZM10 11.125L11.6537 14.475L15.35 15.0125L12.675 17.6187L13.3062 21.3012L10 19.5625L6.69375 21.3L7.325 17.6187L4.65 15.0112L8.34625 14.4737L10 11.125ZM17.5 0.499999V4.25L15.7962 5.6725C14.3824 4.93073 12.8388 4.46854 11.25 4.31125V0.499999H17.5ZM8.75 0.498749V4.31125C7.16168 4.46831 5.61853 4.93006 4.205 5.67125L2.5 4.25V0.499999L8.75 0.498749Z" fill="#09CC66"/>
</svg>
